<svg xmlns="http://www.w3.org/2000/svg" height="20" viewBox="0 -960 960 960" width="20"><path d="M226-98q-53.825 0-90.913-37.087Q98-172.175 98-226v-157h128v157h157v128H226Zm351 0v-128h157v-157h128v157q0 53.825-37.088 90.913Q787.825-98 734-98H577ZM98-577v-157q0-53.825 37.087-90.912Q172.175-862 226-862h157v128H226v157H98Zm636 0v-157H577v-128h157q53.825 0 90.912 37.088Q862-787.825 862-734v157H734ZM479.852-243q-97.472 0-167.162-69.838Q243-382.677 243-480.148q0-97.472 69.838-167.162Q382.677-717 480.148-717q97.472 0 167.162 69.838Q717-577.323 717-479.852q0 97.472-69.838 167.162Q577.323-243 479.852-243Zm.266-128q45.465 0 77.174-31.826Q589-434.652 589-480.118q0-45.465-31.826-77.174Q525.348-589 479.882-589q-45.465 0-77.174 31.826Q371-525.348 371-479.882q0 45.465 31.826 77.174Q434.652-371 480.118-371ZM480-480Z"/></svg>