<?xml version="1.0" encoding="UTF-8" standalone="no"?>
<svg width="100%" height="100%" viewBox="0 0 381 100" version="1.1"
    xmlns="http://www.w3.org/2000/svg" xmlns:xlink="http://www.w3.org/1999/xlink"
    xml:space="preserve" xmlns:serif="http://www.serif.com/"
    style="fill-rule:evenodd;clip-rule:evenodd;stroke-linejoin:round;stroke-miterlimit:2;">
    <g transform="matrix(1,0,0,1,-40,-36)">
        <path d="M65.785,121.175C61.267,117.045 59.948,108.368 61.83,102.082C65.094,106.045 69.616,107.301 74.3,108.009C81.531,109.103 88.632,108.694 95.349,105.389C96.117,105.011 96.828,104.507 97.667,103.998C98.297,105.826 98.462,107.672 98.241,109.551C97.706,114.127 95.429,117.662 91.807,120.341C90.359,121.413 88.826,122.371 87.33,123.382C82.735,126.487 81.492,130.129 83.218,135.427C83.259,135.556 83.296,135.685 83.389,136C81.043,134.95 79.329,133.421 78.023,131.411C76.644,129.289 75.988,126.942 75.953,124.403C75.936,123.167 75.936,121.92 75.77,120.702C75.364,117.732 73.969,116.402 71.343,116.325C68.647,116.247 66.514,117.913 65.949,120.538C65.905,120.739 65.843,120.938 65.78,121.172L65.785,121.175Z" style="fill-rule:nonzero;"/>
        <path d="M65.785,121.175C61.267,117.045 59.948,108.368 61.83,102.082C65.094,106.045 69.616,107.301 74.3,108.009C81.531,109.103 88.632,108.694 95.349,105.389C96.117,105.011 96.828,104.507 97.667,103.998C98.297,105.826 98.462,107.672 98.241,109.551C97.706,114.127 95.429,117.662 91.807,120.341C90.359,121.413 88.826,122.371 87.33,123.382C82.735,126.487 81.492,130.129 83.218,135.427C83.259,135.556 83.296,135.685 83.389,136C81.043,134.95 79.329,133.421 78.023,131.411C76.644,129.289 75.988,126.942 75.953,124.403C75.936,123.167 75.936,121.92 75.77,120.702C75.364,117.732 73.969,116.402 71.343,116.325C68.647,116.247 66.514,117.913 65.949,120.538C65.905,120.739 65.843,120.938 65.78,121.172L65.785,121.175Z" style="fill:url(#_Linear1);fill-rule:nonzero;"/>
        <path d="M40,101.034C40,101.034 53.377,94.518 66.792,94.518L76.907,63.215C77.285,61.702 78.391,60.673 79.639,60.673C80.888,60.673 81.993,61.702 82.372,63.215L92.486,94.518C108.374,94.518 119.279,101.034 119.279,101.034C119.279,101.034 96.556,39.133 96.511,39.009C95.859,37.179 94.758,36 93.274,36L66.007,36C64.523,36 63.466,37.179 62.77,39.009C62.721,39.131 40,101.034 40,101.034Z" style="fill:currentColor;fill-rule:nonzero;"/>
        <path d="M181.043,81.123C181.043,86.608 174.22,89.884 164.773,89.884C158.624,89.884 156.45,88.36 156.45,85.16C156.45,81.808 159.149,80.209 165.297,80.209C170.846,80.209 175.569,80.285 181.043,80.97L181.043,81.123ZM181.118,74.342C177.744,73.581 172.645,73.123 166.572,73.123C148.877,73.123 140.555,77.314 140.555,87.065C140.555,97.198 146.253,101.083 159.449,101.083C170.621,101.083 178.193,98.264 180.968,91.331L181.417,91.331C181.342,93.007 181.268,94.683 181.268,95.978C181.268,99.559 181.867,99.864 184.791,99.864L198.587,99.864C197.837,97.731 197.388,91.712 197.388,86.532C197.388,80.97 197.612,76.78 197.612,71.143C197.612,59.639 190.715,52.325 169.121,52.325C159.824,52.325 149.477,53.925 141.605,56.287C142.354,59.41 143.404,65.734 143.929,69.847C150.752,66.648 160.424,65.276 167.922,65.276C178.268,65.276 181.118,67.638 181.118,72.438L181.118,74.342Z" style="fill:currentColor;fill-rule:nonzero;"/>
        <path d="M218.971,84.322C217.097,84.551 214.547,84.551 211.923,84.551C209.149,84.551 206.6,84.475 204.875,84.246C204.875,84.856 204.8,85.541 204.8,86.151C204.8,95.674 211.024,101.235 232.917,101.235C253.535,101.235 260.208,95.75 260.208,86.075C260.208,76.933 255.785,72.438 236.216,71.447C220.995,70.762 219.646,69.086 219.646,67.181C219.646,64.972 221.595,63.829 231.792,63.829C242.364,63.829 245.213,65.276 245.213,68.324L245.213,69.009C246.713,68.933 249.412,68.857 252.186,68.857C254.81,68.857 257.659,68.933 259.309,69.086C259.309,68.4 259.384,67.79 259.384,67.257C259.384,56.058 250.086,52.401 232.092,52.401C211.848,52.401 205.025,57.353 205.025,67.029C205.025,75.714 210.499,81.123 229.918,81.961C244.238,82.418 245.813,84.018 245.813,86.227C245.813,88.589 243.489,89.655 233.442,89.655C221.895,89.655 218.971,88.055 218.971,84.779L218.971,84.322Z" style="fill:currentColor;fill-rule:nonzero;"/>
        <path d="M284.955,44.173C279.482,49.278 269.66,54.382 264.187,55.753C264.262,58.572 264.262,63.753 264.262,66.572L269.285,66.648C269.21,72.057 269.135,78.609 269.135,82.951C269.135,93.084 274.458,100.702 291.028,100.702C298.001,100.702 302.65,99.94 308.423,98.721C307.823,94.988 307.148,89.274 306.923,84.932C303.475,86.075 299.126,86.684 294.327,86.684C287.654,86.684 284.955,84.856 284.955,79.599C284.955,75.028 284.955,70.762 285.03,66.8C293.578,66.876 302.125,67.029 307.148,67.181C307.073,63.219 307.223,57.506 307.448,53.696C300.176,53.849 292.003,53.925 285.255,53.925C285.33,50.573 285.405,47.373 285.48,44.173L284.955,44.173Z" style="fill:currentColor;fill-rule:nonzero;"/>
        <path d="M329.736,64.286C329.811,60.324 329.886,56.972 329.961,53.696L314.89,53.696C315.115,60.248 315.115,66.953 315.115,76.78C315.115,86.608 315.04,93.388 314.89,99.864L332.135,99.864C331.835,95.293 331.76,87.598 331.76,81.046C331.76,70.686 335.959,67.714 345.481,67.714C349.905,67.714 353.054,68.248 355.828,69.238C355.903,65.353 356.653,57.81 357.102,54.458C354.253,53.62 351.104,53.087 347.28,53.087C339.108,53.011 333.11,56.363 330.336,64.362L329.736,64.286Z" style="fill:currentColor;fill-rule:nonzero;"/>
        <path d="M404.808,76.475C404.808,84.779 398.81,88.665 389.363,88.665C379.991,88.665 373.993,85.008 373.993,76.475C373.993,67.943 380.066,64.743 389.363,64.743C398.735,64.743 404.808,68.171 404.808,76.475ZM420.478,76.094C420.478,59.563 407.582,52.173 389.363,52.173C371.069,52.173 358.623,59.563 358.623,76.094C358.623,92.55 370.244,101.388 389.288,101.388C408.482,101.388 420.478,92.55 420.478,76.094Z" style="fill:currentColor;fill-rule:nonzero;"/>
    </g>
    <defs>
        <linearGradient id="_Linear1" x1="0" y1="0" x2="1" y2="0" gradientUnits="userSpaceOnUse" gradientTransform="matrix(43.6217,-20.61,20.61,43.6217,61.0003,136)"><stop offset="0" style="stop-color:rgb(216,51,51);stop-opacity:1"/><stop offset="1" style="stop-color:rgb(240,65,255);stop-opacity:1"/></linearGradient>
    </defs>
</svg>