<?xml version="1.0" encoding="UTF-8" standalone="no"?>
<!DOCTYPE svg PUBLIC "-//W3C//DTD SVG 1.1//EN" "http://www.w3.org/Graphics/SVG/1.1/DTD/svg11.dtd">
<svg width="100%" height="100%" viewBox="0 0 1600 400" version="1.1" xmlns="http://www.w3.org/2000/svg" xmlns:xlink="http://www.w3.org/1999/xlink" xml:space="preserve" xmlns:serif="http://www.serif.com/" style="fill-rule:evenodd;clip-rule:evenodd;stroke-linecap:round;stroke-linejoin:bevel;stroke-miterlimit:1.5;">
    <g transform="matrix(0.343586,0,0,0.343586,800,185.526316)">
        <g transform="matrix(1,0,0,1,-400,-400)">
            <clipPath id="_clip1">
                <rect x="0" y="0" width="800" height="800"/>
            </clipPath>
            <g clip-path="url(#_clip1)">
                <g transform="matrix(3.125,0,0,3.125,0,89.0625)">
                    <path d="M216.856,16.597C200.285,8.843 182.566,3.208 164.042,0C161.767,4.113 159.109,9.645 157.276,14.046C137.584,11.085 118.073,11.085 98.743,14.046C96.911,9.645 94.193,4.113 91.897,0C73.353,3.208 55.613,8.864 39.042,16.638C5.618,67.147 -3.443,116.401 1.087,164.956C23.256,181.511 44.74,191.568 65.862,198.149C71.077,190.971 75.728,183.341 79.735,175.3C72.104,172.401 64.795,168.822 57.889,164.668C59.721,163.311 61.513,161.891 63.245,160.431C105.367,180.133 151.135,180.133 192.755,160.431C194.506,161.891 196.298,163.311 198.11,164.668C191.184,168.843 183.855,172.421 176.224,175.321C180.23,183.341 184.862,190.992 190.097,198.169C211.239,191.588 232.743,181.532 254.912,164.956C260.228,108.668 245.831,59.866 216.856,16.597ZM85.474,135.095C72.829,135.095 62.459,123.29 62.459,108.915C62.459,94.54 72.608,82.715 85.474,82.715C98.341,82.715 108.71,94.519 108.489,108.915C108.509,123.29 98.341,135.095 85.474,135.095ZM170.525,135.095C157.88,135.095 147.511,123.29 147.511,108.915C147.511,94.54 157.659,82.715 170.525,82.715C183.392,82.715 193.761,94.519 193.54,108.915C193.54,123.29 183.392,135.095 170.525,135.095Z" style="fill:rgb(88,101,242);fill-rule:nonzero;"/>
                </g>
            </g>
        </g>
    </g>
    <g transform="matrix(1,0,0,1,-132.206075,2.631579)">
        <g transform="matrix(78.986831,0,0,78.986831,1241.481171,367.631576)">
        </g>
        <text x="624.474px" y="367.632px" style="font-family:'LazyDog', 'Lazy Dog';font-size:78.987px;">J<tspan x="661.807px 692.816px " y="367.632px 367.632px ">oi</tspan>n our discor<tspan x="1063.838px 1104.257px " y="367.632px 367.632px ">d </tspan>now!</text>
    </g>
    <g transform="matrix(1,0,0,1,232.05162,-24.843005)">
        <g transform="matrix(51.433285,0,0,51.433285,358.310207,108.421057)">
        </g>
        <text x="81.053px" y="108.421px" style="font-family:'LazyDog', 'Lazy Dog';font-size:51.433px;">Not<tspan x="154.134px 173.12px " y="108.421px 108.421px ">es</tspan> &amp; P<tspan x="286.535px 307.429px 337.817px " y="108.421px 108.421px 108.421px ">YQs</tspan></text>
    </g>
    <g transform="matrix(1,0,0,1,82.049831,63.09977)">
        <g transform="matrix(51.433285,0,0,51.433285,301.703457,108.421057)">
        </g>
        <text x="81.053px" y="108.421px" style="font-family:'LazyDog', 'Lazy Dog';font-size:51.433px;">C<tspan x="114.052px 134.244px " y="108.421px 108.421px ">od</tspan>ing H<tspan x="253.937px 272.923px " y="108.421px 108.421px ">el</tspan>p</text>
    </g>
    <g transform="matrix(1,0,0,1,247.69041,152.339354)">
        <g transform="matrix(51.433285,0,0,51.433285,275.63522,108.421057)">
        </g>
        <text x="81.053px" y="108.421px" style="font-family:'LazyDog', 'Lazy Dog';font-size:51.433px;">C<tspan x="114.052px 134.244px " y="108.421px 108.421px ">om</tspan>munity</text>
    </g>
    <g transform="matrix(1,0,0,1,952.408216,-24.893232)">
        <g transform="matrix(51.433285,0,0,51.433285,517.582617,108.421057)">
        </g>
        <text x="81.053px" y="108.421px" style="font-family:'LazyDog', 'Lazy Dog';font-size:51.433px;">Bi-weekly P<tspan x="294.923px 313.909px " y="108.421px 108.421px ">ee</tspan>r C<tspan x="403.817px 424.008px " y="108.421px 108.421px ">on</tspan>nect</text>
    </g>
    <g transform="matrix(1,0,0,1,1097.101105,85.149782)">
        <g transform="matrix(51.433285,0,0,51.433285,377.296322,108.421057)">
        </g>
        <text x="81.053px" y="108.421px" style="font-family:'LazyDog', 'Lazy Dog';font-size:51.433px;">G<tspan x="106.619px 128.116px " y="108.421px 108.421px ">am</tspan>ing &amp; Music</text>
    </g>
    <g transform="matrix(1,0,0,1,1001.544476,174.715847)">
        <g transform="matrix(51.433285,0,0,51.433285,439.277449,108.421057)">
        </g>
        <text x="81.053px" y="108.421px" style="font-family:'LazyDog', 'Lazy Dog';font-size:51.433px;">Softwar<tspan x="229.928px 248.914px " y="108.421px 108.421px ">e </tspan>&amp; Movies</text>
    </g>
    <g transform="matrix(1,0,0,1,-47.36842,14.473684)">
        <g transform="matrix(33.064255,0,0,33.064255,247.931887,370.263155)">
        </g>
        <text x="63.947px" y="370.263px" style="font-family:'LazyDog', 'Lazy Dog';font-size:33.064px;">@t<tspan x="95.72px 107.925px " y="370.263px 370.263px ">ec</tspan>hgeeksgehu</text>
    </g>
    <path d="M616.579,55.789C664.651,42.054 711.253,46.516 727.105,62.368" style="fill:none;stroke:black;stroke-width:2px;"/>
    <path d="M703.421,68.947C716.495,75.484 745.172,75.172 742.895,72.895C738.285,68.285 739.132,68 729.737,49.211" style="fill:none;stroke:black;stroke-width:2px;"/>
    <path d="M424.474,157.105C519.189,141.319 528.973,149.598 562.632,151.842C568.365,152.224 627.481,156.165 633.684,162.368" style="fill:none;stroke:black;stroke-width:2px;"/>
    <path d="M623.158,147.895C634.725,150.787 655.859,164.187 645.526,167.632C642.93,168.497 617.895,176.842 613.947,180.789" style="fill:none;stroke:black;stroke-width:2px;"/>
    <path d="M560,241.316C566.444,240.82 636.974,235.395 640.263,232.105" style="fill:none;stroke:black;stroke-width:2px;"/>
    <path d="M629.737,222.895C634.12,224.356 663.56,227.23 649.474,241.316C644.649,246.14 639.825,250.965 635,255.789" style="fill:none;stroke:black;stroke-width:2px;"/>
    <path d="M1010,71.579C996.488,73.509 959.167,75.044 942.895,91.316C936.226,97.984 937.875,98.967 931.053,105.789" style="fill:none;stroke:black;stroke-width:2px;"/>
    <path d="M932.368,82.105C922.275,94.721 925.673,101.959 912.632,115C910.048,117.584 912.423,121.845 957.368,124.211" style="fill:none;stroke:black;stroke-width:2px;"/>
    <path d="M1170.526,168.947C1141.158,173.842 938.611,177.179 936.316,179.474" style="fill:none;stroke:black;stroke-width:2px;"/>
    <path d="M960,159.737C957.397,160.853 930.066,172.566 933.684,183.421C934.657,186.338 947.207,185.102 962.632,200.526" style="fill:none;stroke:black;stroke-width:2px;"/>
    <path d="M1071.842,263.684C1069.378,261.22 1068.645,263.401 1032.368,245.263C1011.497,234.827 966.845,229.562 966.579,229.474" style="fill:none;stroke:black;stroke-width:2px;"/>
    <path d="M965.263,245.263C961.754,234.737 955.781,225.777 954.737,224.211C941.264,204.002 963.183,217.632 987.632,217.632" style="fill:none;stroke:black;stroke-width:2px;"/>
    <g transform="matrix(1,0,0,1,7.894737,-5.263158)">
        <path d="M774.474,374.211C942.112,367.763 956.607,373.657 946.842,383.421C939.336,390.927 743.454,379.366 799.474,387.368C841.275,393.34 965.335,386.811 979.737,386.053" style="fill:none;stroke:rgb(255,0,0);stroke-width:2px;"/>
    </g>
</svg>
