<?xml version="1.0" encoding="UTF-8" standalone="no"?>
<!DOCTYPE svg PUBLIC "-//W3C//DTD SVG 1.1//EN" "http://www.w3.org/Graphics/SVG/1.1/DTD/svg11.dtd">
<svg width="100%" height="100%" viewBox="0 0 800 400" version="1.1" xmlns="http://www.w3.org/2000/svg" xmlns:xlink="http://www.w3.org/1999/xlink" xml:space="preserve" xmlns:serif="http://www.serif.com/" style="fill-rule:evenodd;clip-rule:evenodd;stroke-linejoin:round;stroke-miterlimit:2;">
    <g transform="matrix(0.317919,0,0,0.317919,400,176.266819)">
        <g transform="matrix(1,0,0,1,-400,-400)">
            <clipPath id="_clip1">
                <rect x="0" y="0" width="800" height="800"/>
            </clipPath>
            <g clip-path="url(#_clip1)">
                <g transform="matrix(3.125,0,0,3.125,0,89.0625)">
                    <path d="M216.856,16.597C200.285,8.843 182.566,3.208 164.042,0C161.767,4.113 159.109,9.645 157.276,14.046C137.584,11.085 118.073,11.085 98.743,14.046C96.911,9.645 94.193,4.113 91.897,0C73.353,3.208 55.613,8.864 39.042,16.638C5.618,67.147 -3.443,116.401 1.087,164.956C23.256,181.511 44.74,191.568 65.862,198.149C71.077,190.971 75.728,183.341 79.735,175.3C72.104,172.401 64.795,168.822 57.889,164.668C59.721,163.311 61.513,161.891 63.245,160.431C105.367,180.133 151.135,180.133 192.755,160.431C194.506,161.891 196.298,163.311 198.11,164.668C191.184,168.843 183.855,172.421 176.224,175.321C180.23,183.341 184.862,190.992 190.097,198.169C211.239,191.588 232.743,181.532 254.912,164.956C260.228,108.668 245.831,59.866 216.856,16.597ZM85.474,135.095C72.829,135.095 62.459,123.29 62.459,108.915C62.459,94.54 72.608,82.715 85.474,82.715C98.341,82.715 108.71,94.519 108.489,108.915C108.509,123.29 98.341,135.095 85.474,135.095ZM170.525,135.095C157.88,135.095 147.511,123.29 147.511,108.915C147.511,94.54 157.659,82.715 170.525,82.715C183.392,82.715 193.761,94.519 193.54,108.915C193.54,123.29 183.392,135.095 170.525,135.095Z" style="fill:rgb(88,101,242);fill-rule:nonzero;"/>
                </g>
            </g>
        </g>
    </g>
    <g transform="matrix(0.610739,0,0,0.610739,97.630879,-10.309118)">
        <g transform="matrix(51.433285,0,0,51.433285,358.310207,108.421057)">
        </g>
        <text x="81.053px" y="108.421px" style="font-family:'LazyDog', 'Lazy Dog';font-size:51.433px;fill:white;">Not<tspan x="154.134px 173.12px " y="108.421px 108.421px ">es</tspan> &amp; P<tspan x="286.535px 307.429px 337.817px " y="108.421px 108.421px 108.421px ">YQs</tspan></text>
    </g>
    <g transform="matrix(0.610739,0,0,0.610739,15.668583,62.171212)">
        <g transform="matrix(51.433285,0,0,51.433285,301.703457,108.421057)">
        </g>
        <text x="81.053px" y="108.421px" style="font-family:'LazyDog', 'Lazy Dog';font-size:51.433px;fill:white;">C<tspan x="114.052px 134.244px " y="108.421px 108.421px ">od</tspan>ing H<tspan x="253.937px 272.923px " y="108.421px 108.421px ">el</tspan>p</text>
    </g>
    <g transform="matrix(0.610739,0,0,0.610739,38.61009,142.032655)">
        <g transform="matrix(51.433285,0,0,51.433285,275.63522,108.421057)">
        </g>
        <text x="81.053px" y="108.421px" style="font-family:'LazyDog', 'Lazy Dog';font-size:51.433px;fill:white;">C<tspan x="114.052px 134.244px " y="108.421px 108.421px ">om</tspan>munity</text>
    </g>
    <g transform="matrix(0.610739,0,0,0.610739,400.300103,-13.560783)">
        <g transform="matrix(51.433285,0,0,51.433285,517.582617,108.421057)">
        </g>
        <text x="81.053px" y="108.421px" style="font-family:'LazyDog', 'Lazy Dog';font-size:51.433px;fill:white;">Bi-weekly P<tspan x="294.923px 313.909px " y="108.421px 108.421px ">ee</tspan>r C<tspan x="403.817px 424.008px " y="108.421px 108.421px ">on</tspan>nect</text>
    </g>
    <g transform="matrix(0.610739,0,0,0.610739,533.265597,89.22752)">
        <g transform="matrix(51.433285,0,0,51.433285,377.296322,108.421057)">
        </g>
        <text x="81.053px" y="108.421px" style="font-family:'LazyDog', 'Lazy Dog';font-size:51.433px;fill:white;">G<tspan x="106.619px 128.116px " y="108.421px 108.421px ">am</tspan>ing &amp; Music</text>
    </g>
    <g transform="matrix(0.610739,0,0,0.610739,504.776038,180.510215)">
        <g transform="matrix(51.433285,0,0,51.433285,439.277449,108.421057)">
        </g>
        <text x="81.053px" y="108.421px" style="font-family:'LazyDog', 'Lazy Dog';font-size:51.433px;fill:white;">Softwar<tspan x="229.928px 248.914px " y="108.421px 108.421px ">e </tspan>&amp; Movies</text>
    </g>
    <g transform="matrix(1,0,0,1,-544.178315,-26.189236)">
        <g transform="matrix(78.986831,0,0,78.986831,1241.481171,367.631576)">
        </g>
        <text x="624.474px" y="367.632px" style="font-family:'LazyDog', 'Lazy Dog';font-size:78.987px;fill:white;">J<tspan x="661.807px 692.816px " y="367.632px 367.632px ">oi</tspan>n our discor<tspan x="1063.838px 1104.257px " y="367.632px 367.632px ">d </tspan>now!</text>
    </g>
    <g transform="matrix(1,0,0,1,-55.034796,20.237847)">
        <g transform="matrix(33.064255,0,0,33.064255,247.931887,370.263155)">
        </g>
        <text x="63.947px" y="370.263px" style="font-family:'LazyDog', 'Lazy Dog';font-size:33.064px;fill:white;">@t<tspan x="95.72px 107.925px " y="370.263px 370.263px ">ec</tspan>hgeeksgehu</text>
    </g>
</svg>
